<svg width="129" height="27" viewBox="0 0 129 27" fill="none" xmlns="http://www.w3.org/2000/svg">
<path d="M2.35498 23.7451C2.35498 24.1602 2.26709 24.4832 2.09131 24.7144C1.91553 24.9438 1.68034 25.0586 1.38574 25.0586C1.24902 25.0586 1.13672 25.0391 1.04883 25V24.5947C1.13672 24.6582 1.25065 24.6899 1.39062 24.6899C1.76009 24.6899 1.94482 24.3766 1.94482 23.75V21.499H2.35498V23.7451ZM4.2123 25.0586C3.84284 25.0586 3.54743 24.9422 3.32607 24.7095C3.10635 24.4751 2.99648 24.165 2.99648 23.7793C2.99648 23.3594 3.11123 23.0314 3.34072 22.7954C3.57021 22.5594 3.88027 22.4414 4.2709 22.4414C4.64362 22.4414 4.93415 22.5562 5.14248 22.7856C5.35244 23.0151 5.45742 23.3333 5.45742 23.7402C5.45742 24.139 5.3443 24.4588 5.11807 24.6997C4.89346 24.939 4.59154 25.0586 4.2123 25.0586ZM4.2416 22.7783C3.98444 22.7783 3.78099 22.8662 3.63125 23.042C3.48151 23.2161 3.40664 23.457 3.40664 23.7646C3.40664 24.0609 3.48232 24.2944 3.63369 24.4653C3.78506 24.6362 3.9877 24.7217 4.2416 24.7217C4.50039 24.7217 4.69896 24.6379 4.8373 24.4702C4.97728 24.3026 5.04727 24.0641 5.04727 23.7549C5.04727 23.4424 4.97728 23.2015 4.8373 23.0322C4.69896 22.863 4.50039 22.7783 4.2416 22.7783ZM8.09355 25H7.69316V24.6045H7.6834C7.51738 24.9072 7.26022 25.0586 6.91191 25.0586C6.31621 25.0586 6.01836 24.7038 6.01836 23.9941V22.5H6.41631V23.9307C6.41631 24.458 6.61813 24.7217 7.02178 24.7217C7.21709 24.7217 7.37741 24.6501 7.50273 24.5068C7.62969 24.362 7.69316 24.1732 7.69316 23.9404V22.5H8.09355V25ZM10.1828 22.9053C10.1128 22.8516 10.0119 22.8247 9.88008 22.8247C9.70918 22.8247 9.56595 22.9053 9.45039 23.0664C9.33646 23.2275 9.27949 23.4473 9.27949 23.7256V25H8.8791V22.5H9.27949V23.0151H9.28926C9.34622 22.8394 9.4333 22.7026 9.55049 22.605C9.66768 22.5057 9.7987 22.4561 9.94355 22.4561C10.0477 22.4561 10.1275 22.4674 10.1828 22.4902V22.9053ZM12.6676 25H12.2672V23.5742C12.2672 23.0436 12.0735 22.7783 11.6861 22.7783C11.4859 22.7783 11.3199 22.854 11.1881 23.0054C11.0579 23.1551 10.9928 23.3447 10.9928 23.5742V25H10.5924V22.5H10.9928V22.915H11.0025C11.1913 22.5993 11.4648 22.4414 11.8229 22.4414C12.0963 22.4414 12.3054 22.5301 12.4503 22.7075C12.5951 22.8833 12.6676 23.138 12.6676 23.4717V25ZM15.189 25H14.7886V24.6094H14.7788C14.6047 24.9089 14.3483 25.0586 14.0098 25.0586C13.7607 25.0586 13.5654 24.9927 13.4238 24.8608C13.2839 24.729 13.2139 24.554 13.2139 24.3359C13.2139 23.8688 13.4889 23.597 14.0391 23.5205L14.7886 23.4155C14.7886 22.9907 14.6169 22.7783 14.2734 22.7783C13.9723 22.7783 13.7005 22.8809 13.458 23.0859V22.6758C13.7038 22.5195 13.987 22.4414 14.3076 22.4414C14.8952 22.4414 15.189 22.7523 15.189 23.374V25ZM14.7886 23.7354L14.1855 23.8184C14 23.8444 13.86 23.8908 13.7656 23.9575C13.6712 24.0226 13.624 24.139 13.624 24.3066C13.624 24.4287 13.6672 24.5288 13.7534 24.6069C13.8413 24.6834 13.9577 24.7217 14.1025 24.7217C14.3011 24.7217 14.4647 24.6525 14.5933 24.5142C14.7235 24.3742 14.7886 24.1976 14.7886 23.9844V23.7354ZM16.3188 25H15.9184V21.2988H16.3188V25ZM19.4963 25.0586C19.1268 25.0586 18.8314 24.9422 18.6101 24.7095C18.3903 24.4751 18.2805 24.165 18.2805 23.7793C18.2805 23.3594 18.3952 23.0314 18.6247 22.7954C18.8542 22.5594 19.1643 22.4414 19.5549 22.4414C19.9276 22.4414 20.2181 22.5562 20.4265 22.7856C20.6364 23.0151 20.7414 23.3333 20.7414 23.7402C20.7414 24.139 20.6283 24.4588 20.4021 24.6997C20.1774 24.939 19.8755 25.0586 19.4963 25.0586ZM19.5256 22.7783C19.2684 22.7783 19.065 22.8662 18.9152 23.042C18.7655 23.2161 18.6906 23.457 18.6906 23.7646C18.6906 24.0609 18.7663 24.2944 18.9177 24.4653C19.069 24.6362 19.2717 24.7217 19.5256 24.7217C19.7844 24.7217 19.9829 24.6379 20.1213 24.4702C20.2613 24.3026 20.3312 24.0641 20.3312 23.7549C20.3312 23.4424 20.2613 23.2015 20.1213 23.0322C19.9829 22.863 19.7844 22.7783 19.5256 22.7783ZM22.5914 21.6504C22.5133 21.6064 22.4246 21.5845 22.3253 21.5845C22.0453 21.5845 21.9054 21.7611 21.9054 22.1143V22.5H22.4913V22.8418H21.9054V25H21.5074V22.8418H21.0802V22.5H21.5074V22.0947C21.5074 21.8327 21.5831 21.626 21.7345 21.4746C21.8858 21.3216 22.0746 21.2451 22.3009 21.2451C22.4229 21.2451 22.5198 21.2598 22.5914 21.2891V21.6504ZM27.1215 25H26.6186L24.8168 22.2095C24.7712 22.1395 24.7338 22.0662 24.7045 21.9897H24.6898C24.7029 22.0646 24.7094 22.2249 24.7094 22.4707V25H24.2992V21.499H24.8314L26.5844 24.2456C26.6576 24.3595 26.7048 24.4377 26.726 24.48H26.7357C26.7195 24.3791 26.7113 24.2074 26.7113 23.9648V21.499H27.1215V25ZM29.97 23.8501H28.2049C28.2114 24.1284 28.2863 24.3433 28.4295 24.4946C28.5727 24.646 28.7697 24.7217 29.0203 24.7217C29.3019 24.7217 29.5607 24.6289 29.7967 24.4434V24.8193C29.577 24.9788 29.2864 25.0586 28.9251 25.0586C28.5719 25.0586 28.2944 24.9455 28.0926 24.7192C27.8908 24.4914 27.7898 24.1715 27.7898 23.7598C27.7898 23.3708 27.8997 23.0542 28.1194 22.8101C28.3408 22.5643 28.615 22.4414 28.9422 22.4414C29.2693 22.4414 29.5224 22.5472 29.7015 22.7588C29.8805 22.9704 29.97 23.2642 29.97 23.6401V23.8501ZM29.5599 23.5107C29.5582 23.2796 29.5021 23.0998 29.3914 22.9712C29.2824 22.8426 29.1302 22.7783 28.9349 22.7783C28.7461 22.7783 28.5857 22.8459 28.4539 22.981C28.3221 23.116 28.2407 23.2926 28.2098 23.5107H29.5599ZM32.3791 22.5L31.5393 23.7646L32.3645 25H31.8981L31.4074 24.1895C31.3765 24.139 31.3399 24.0755 31.2976 23.999H31.2878C31.2797 24.0137 31.2414 24.0771 31.173 24.1895L30.6726 25H30.2111L31.0632 23.7744L30.2478 22.5H30.7141L31.1975 23.3545C31.2333 23.418 31.2683 23.4831 31.3024 23.5498H31.3122L31.9372 22.5H32.3791ZM33.9825 24.9756C33.8881 25.0277 33.7636 25.0537 33.609 25.0537C33.1712 25.0537 32.9522 24.8096 32.9522 24.3213V22.8418H32.5226V22.5H32.9522V21.8896L33.3526 21.7603V22.5H33.9825V22.8418H33.3526V24.2505C33.3526 24.4181 33.3811 24.5378 33.4381 24.6094C33.4951 24.681 33.5895 24.7168 33.7213 24.7168C33.8222 24.7168 33.9093 24.6891 33.9825 24.6338V24.9756ZM35.7715 23.7646H34.4385V23.4497H35.7715V23.7646ZM39.14 24.7607C38.7885 24.9593 38.3979 25.0586 37.9682 25.0586C37.4685 25.0586 37.064 24.8975 36.7548 24.5752C36.4472 24.2529 36.2934 23.8265 36.2934 23.2959C36.2934 22.7539 36.4643 22.3096 36.8061 21.9629C37.1495 21.6146 37.584 21.4404 38.1098 21.4404C38.4906 21.4404 38.8104 21.5023 39.0692 21.626V22.0801C38.786 21.901 38.4507 21.8115 38.0634 21.8115C37.6711 21.8115 37.3497 21.9466 37.099 22.2168C36.8484 22.487 36.723 22.8369 36.723 23.2666C36.723 23.7093 36.8394 24.0576 37.0722 24.3115C37.3049 24.5638 37.6207 24.6899 38.0194 24.6899C38.2929 24.6899 38.5297 24.6354 38.7299 24.5264V23.5449H37.9633V23.1738H39.14V24.7607ZM41.886 23.8501H40.1209C40.1274 24.1284 40.2023 24.3433 40.3455 24.4946C40.4887 24.646 40.6857 24.7217 40.9363 24.7217C41.2179 24.7217 41.4767 24.6289 41.7127 24.4434V24.8193C41.493 24.9788 41.2024 25.0586 40.8411 25.0586C40.4879 25.0586 40.2104 24.9455 40.0086 24.7192C39.8068 24.4914 39.7059 24.1715 39.7059 23.7598C39.7059 23.3708 39.8157 23.0542 40.0354 22.8101C40.2568 22.5643 40.5311 22.4414 40.8582 22.4414C41.1854 22.4414 41.4384 22.5472 41.6175 22.7588C41.7965 22.9704 41.886 23.2642 41.886 23.6401V23.8501ZM41.4759 23.5107C41.4743 23.2796 41.4181 23.0998 41.3074 22.9712C41.1984 22.8426 41.0462 22.7783 40.8509 22.7783C40.6621 22.7783 40.5018 22.8459 40.3699 22.981C40.2381 23.116 40.1567 23.2926 40.1258 23.5107H41.4759ZM44.5441 25H44.1437V23.5742C44.1437 23.0436 43.9501 22.7783 43.5627 22.7783C43.3625 22.7783 43.1965 22.854 43.0646 23.0054C42.9344 23.1551 42.8693 23.3447 42.8693 23.5742V25H42.4689V22.5H42.8693V22.915H42.8791C43.0679 22.5993 43.3413 22.4414 43.6994 22.4414C43.9729 22.4414 44.182 22.5301 44.3269 22.7075C44.4717 22.8833 44.5441 23.138 44.5441 23.4717V25ZM46.5132 24.8584V24.375C46.5685 24.4238 46.6344 24.4678 46.7109 24.5068C46.7891 24.5459 46.8704 24.5793 46.9551 24.6069C47.0413 24.633 47.1276 24.6533 47.2139 24.668C47.3001 24.6826 47.3799 24.6899 47.4531 24.6899C47.7054 24.6899 47.8934 24.6436 48.0171 24.5508C48.1424 24.4564 48.2051 24.3213 48.2051 24.1455C48.2051 24.0511 48.1839 23.9689 48.1416 23.8989C48.1009 23.8289 48.0439 23.7655 47.9707 23.7085C47.8975 23.6499 47.8104 23.5946 47.7095 23.5425C47.6102 23.4888 47.5028 23.4326 47.3872 23.374C47.2651 23.3122 47.1512 23.2495 47.0454 23.186C46.9396 23.1226 46.8477 23.0526 46.7695 22.9761C46.6914 22.8996 46.6296 22.8133 46.584 22.7173C46.54 22.6196 46.5181 22.5057 46.5181 22.3755C46.5181 22.216 46.5531 22.0776 46.623 21.9604C46.693 21.8416 46.785 21.744 46.8989 21.6675C47.0129 21.591 47.1423 21.534 47.2871 21.4966C47.4336 21.4591 47.5825 21.4404 47.7339 21.4404C48.0789 21.4404 48.3304 21.4819 48.4883 21.5649V22.0264C48.2816 21.8831 48.0163 21.8115 47.6924 21.8115C47.6029 21.8115 47.5133 21.8213 47.4238 21.8408C47.3343 21.8587 47.2546 21.8888 47.1846 21.9312C47.1146 21.9735 47.0576 22.028 47.0137 22.0947C46.9697 22.1615 46.9478 22.2428 46.9478 22.3389C46.9478 22.4284 46.964 22.5057 46.9966 22.5708C47.0308 22.6359 47.0804 22.6953 47.1455 22.749C47.2106 22.8027 47.2896 22.8548 47.3823 22.9053C47.4767 22.9557 47.585 23.0111 47.707 23.0713C47.8324 23.1331 47.9512 23.1982 48.0635 23.2666C48.1758 23.335 48.2743 23.4106 48.3589 23.4937C48.4435 23.5767 48.5103 23.6686 48.5591 23.7695C48.6095 23.8704 48.6348 23.986 48.6348 24.1162C48.6348 24.2887 48.6006 24.4352 48.5322 24.5557C48.4655 24.6745 48.3743 24.7713 48.2588 24.8462C48.1449 24.9211 48.013 24.9748 47.8633 25.0073C47.7135 25.0415 47.5557 25.0586 47.3896 25.0586C47.3343 25.0586 47.266 25.0537 47.1846 25.0439C47.1032 25.0358 47.0202 25.0228 46.9355 25.0049C46.8509 24.9886 46.7703 24.9683 46.6938 24.9438C46.619 24.9178 46.5588 24.8893 46.5132 24.8584ZM50.9584 24.8853C50.7663 25.0008 50.5385 25.0586 50.2748 25.0586C49.9184 25.0586 49.6303 24.943 49.4105 24.7119C49.1924 24.4792 49.0834 24.1781 49.0834 23.8086C49.0834 23.3968 49.2014 23.0664 49.4374 22.8174C49.6734 22.5667 49.9883 22.4414 50.3822 22.4414C50.602 22.4414 50.7956 22.4821 50.9633 22.5635V22.9736C50.7777 22.8434 50.5792 22.7783 50.3676 22.7783C50.112 22.7783 49.9021 22.8703 49.7377 23.0542C49.5749 23.2365 49.4936 23.4766 49.4936 23.7744C49.4936 24.0674 49.5701 24.2985 49.723 24.4678C49.8777 24.637 50.0844 24.7217 50.3432 24.7217C50.5613 24.7217 50.7663 24.6493 50.9584 24.5044V24.8853ZM51.7439 21.8652C51.6723 21.8652 51.6113 21.8408 51.5608 21.792C51.5104 21.7432 51.4852 21.6813 51.4852 21.6064C51.4852 21.5316 51.5104 21.4697 51.5608 21.4209C51.6113 21.3704 51.6723 21.3452 51.7439 21.3452C51.8172 21.3452 51.879 21.3704 51.9295 21.4209C51.9816 21.4697 52.0076 21.5316 52.0076 21.6064C52.0076 21.6781 51.9816 21.7391 51.9295 21.7896C51.879 21.84 51.8172 21.8652 51.7439 21.8652ZM51.9393 25H51.5389V22.5H51.9393V25ZM54.7341 23.8501H52.9689C52.9755 24.1284 53.0503 24.3433 53.1936 24.4946C53.3368 24.646 53.5337 24.7217 53.7844 24.7217C54.0659 24.7217 54.3247 24.6289 54.5607 24.4434V24.8193C54.341 24.9788 54.0505 25.0586 53.6892 25.0586C53.336 25.0586 53.0585 24.9455 52.8566 24.7192C52.6548 24.4914 52.5539 24.1715 52.5539 23.7598C52.5539 23.3708 52.6638 23.0542 52.8835 22.8101C53.1048 22.5643 53.3791 22.4414 53.7062 22.4414C54.0334 22.4414 54.2865 22.5472 54.4655 22.7588C54.6446 22.9704 54.7341 23.2642 54.7341 23.6401V23.8501ZM54.3239 23.5107C54.3223 23.2796 54.2661 23.0998 54.1555 22.9712C54.0464 22.8426 53.8942 22.7783 53.6989 22.7783C53.5101 22.7783 53.3498 22.8459 53.218 22.981C53.0861 23.116 53.0048 23.2926 52.9738 23.5107H54.3239ZM57.3922 25H56.9918V23.5742C56.9918 23.0436 56.7981 22.7783 56.4107 22.7783C56.2105 22.7783 56.0445 22.854 55.9127 23.0054C55.7825 23.1551 55.7174 23.3447 55.7174 23.5742V25H55.317V22.5H55.7174V22.915H55.7271C55.916 22.5993 56.1894 22.4414 56.5475 22.4414C56.8209 22.4414 57.03 22.5301 57.1749 22.7075C57.3198 22.8833 57.3922 23.138 57.3922 23.4717V25ZM59.8281 24.8853C59.6361 25.0008 59.4082 25.0586 59.1445 25.0586C58.7881 25.0586 58.5 24.943 58.2803 24.7119C58.0622 24.4792 57.9531 24.1781 57.9531 23.8086C57.9531 23.3968 58.0711 23.0664 58.3071 22.8174C58.5431 22.5667 58.8581 22.4414 59.252 22.4414C59.4717 22.4414 59.6654 22.4821 59.833 22.5635V22.9736C59.6475 22.8434 59.4489 22.7783 59.2373 22.7783C58.9818 22.7783 58.7718 22.8703 58.6074 23.0542C58.4447 23.2365 58.3633 23.4766 58.3633 23.7744C58.3633 24.0674 58.4398 24.2985 58.5928 24.4678C58.7474 24.637 58.9541 24.7217 59.2129 24.7217C59.431 24.7217 59.6361 24.6493 59.8281 24.5044V24.8853ZM62.4179 23.8501H60.6527C60.6592 24.1284 60.7341 24.3433 60.8773 24.4946C61.0206 24.646 61.2175 24.7217 61.4682 24.7217C61.7497 24.7217 62.0085 24.6289 62.2445 24.4434V24.8193C62.0248 24.9788 61.7343 25.0586 61.3729 25.0586C61.0198 25.0586 60.7423 24.9455 60.5404 24.7192C60.3386 24.4914 60.2377 24.1715 60.2377 23.7598C60.2377 23.3708 60.3476 23.0542 60.5673 22.8101C60.7886 22.5643 61.0629 22.4414 61.39 22.4414C61.7172 22.4414 61.9703 22.5472 62.1493 22.7588C62.3284 22.9704 62.4179 23.2642 62.4179 23.6401V23.8501ZM62.0077 23.5107C62.0061 23.2796 61.9499 23.0998 61.8393 22.9712C61.7302 22.8426 61.578 22.7783 61.3827 22.7783C61.1939 22.7783 61.0336 22.8459 60.9018 22.981C60.7699 23.116 60.6885 23.2926 60.6576 23.5107H62.0077ZM66.1374 25H65.737V24.6094H65.7272C65.5531 24.9089 65.2967 25.0586 64.9582 25.0586C64.7092 25.0586 64.5139 24.9927 64.3723 24.8608C64.2323 24.729 64.1623 24.554 64.1623 24.3359C64.1623 23.8688 64.4374 23.597 64.9875 23.5205L65.737 23.4155C65.737 22.9907 65.5653 22.7783 65.2219 22.7783C64.9208 22.7783 64.649 22.8809 64.4064 23.0859V22.6758C64.6522 22.5195 64.9354 22.4414 65.2561 22.4414C65.8436 22.4414 66.1374 22.7523 66.1374 23.374V25ZM65.737 23.7354L65.134 23.8184C64.9484 23.8444 64.8085 23.8908 64.7141 23.9575C64.6197 24.0226 64.5725 24.139 64.5725 24.3066C64.5725 24.4287 64.6156 24.5288 64.7019 24.6069C64.7897 24.6834 64.9061 24.7217 65.051 24.7217C65.2495 24.7217 65.4131 24.6525 65.5417 24.5142C65.6719 24.3742 65.737 24.1976 65.737 23.9844V23.7354ZM68.942 25H68.5416V23.5742C68.5416 23.0436 68.3479 22.7783 67.9605 22.7783C67.7604 22.7783 67.5943 22.854 67.4625 23.0054C67.3323 23.1551 67.2672 23.3447 67.2672 23.5742V25H66.8668V22.5H67.2672V22.915H67.277C67.4658 22.5993 67.7392 22.4414 68.0973 22.4414C68.3707 22.4414 68.5799 22.5301 68.7247 22.7075C68.8696 22.8833 68.942 23.138 68.942 23.4717V25ZM71.8076 25H71.4072V24.5752H71.3975C71.2119 24.8975 70.9255 25.0586 70.5381 25.0586C70.224 25.0586 69.9725 24.9471 69.7837 24.7241C69.5965 24.4995 69.5029 24.1943 69.5029 23.8086C69.5029 23.3952 69.6071 23.064 69.8154 22.8149C70.0238 22.5659 70.3013 22.4414 70.6479 22.4414C70.9914 22.4414 71.2412 22.5765 71.3975 22.8467H71.4072V21.2988H71.8076V25ZM71.4072 23.8696V23.501C71.4072 23.2992 71.3405 23.1283 71.207 22.9883C71.0736 22.8483 70.9043 22.7783 70.6992 22.7783C70.4551 22.7783 70.263 22.8678 70.123 23.0469C69.9831 23.2259 69.9131 23.4733 69.9131 23.7891C69.9131 24.0771 69.9798 24.305 70.1133 24.4727C70.2484 24.6387 70.429 24.7217 70.6553 24.7217C70.8783 24.7217 71.0589 24.6411 71.1973 24.48C71.3372 24.3188 71.4072 24.1154 71.4072 23.8696ZM75.8494 25H73.9939V21.499H75.7713V21.8701H74.4041V23.0347H75.6687V23.4033H74.4041V24.6289H75.8494V25ZM78.5197 25H78.1193V23.5742C78.1193 23.0436 77.9257 22.7783 77.5383 22.7783C77.3381 22.7783 77.1721 22.854 77.0402 23.0054C76.91 23.1551 76.8449 23.3447 76.8449 23.5742V25H76.4445V22.5H76.8449V22.915H76.8547C77.0435 22.5993 77.3169 22.4414 77.675 22.4414C77.9484 22.4414 78.1576 22.5301 78.3024 22.7075C78.4473 22.8833 78.5197 23.138 78.5197 23.4717V25ZM81.3854 24.7998C81.3854 25.7178 80.9459 26.1768 80.067 26.1768C79.7577 26.1768 79.4876 26.1182 79.2564 26.001V25.6006C79.538 25.7568 79.8066 25.835 80.0621 25.835C80.6773 25.835 80.985 25.5078 80.985 24.8535V24.5801H80.9752C80.7848 24.8991 80.4983 25.0586 80.1158 25.0586C79.8049 25.0586 79.5543 24.9479 79.3639 24.7266C79.1751 24.5036 79.0807 24.2049 79.0807 23.8306C79.0807 23.4058 79.1824 23.068 79.3858 22.8174C79.5909 22.5667 79.8709 22.4414 80.2257 22.4414C80.5626 22.4414 80.8124 22.5765 80.9752 22.8467H80.985V22.5H81.3854V24.7998ZM80.985 23.8696V23.501C80.985 23.3024 80.9174 23.1323 80.7823 22.9907C80.6489 22.8491 80.482 22.7783 80.2818 22.7783C80.0344 22.7783 79.8408 22.8687 79.7008 23.0493C79.5608 23.2284 79.4908 23.4798 79.4908 23.8037C79.4908 24.082 79.5576 24.305 79.691 24.4727C79.8261 24.6387 80.0043 24.7217 80.2257 24.7217C80.4503 24.7217 80.6326 24.6419 80.7726 24.4824C80.9142 24.3229 80.985 24.1187 80.985 23.8696ZM82.376 21.8652C82.3044 21.8652 82.2433 21.8408 82.1929 21.792C82.1424 21.7432 82.1172 21.6813 82.1172 21.6064C82.1172 21.5316 82.1424 21.4697 82.1929 21.4209C82.2433 21.3704 82.3044 21.3452 82.376 21.3452C82.4492 21.3452 82.5111 21.3704 82.5615 21.4209C82.6136 21.4697 82.6396 21.5316 82.6396 21.6064C82.6396 21.6781 82.6136 21.7391 82.5615 21.7896C82.5111 21.84 82.4492 21.8652 82.376 21.8652ZM82.5713 25H82.1709V22.5H82.5713V25ZM85.432 25H85.0316V23.5742C85.0316 23.0436 84.838 22.7783 84.4506 22.7783C84.2504 22.7783 84.0844 22.854 83.9525 23.0054C83.8223 23.1551 83.7572 23.3447 83.7572 23.5742V25H83.3568V22.5H83.7572V22.915H83.767C83.9558 22.5993 84.2292 22.4414 84.5873 22.4414C84.8607 22.4414 85.0699 22.5301 85.2147 22.7075C85.3596 22.8833 85.432 23.138 85.432 23.4717V25ZM88.1731 23.8501H86.408C86.4145 24.1284 86.4894 24.3433 86.6326 24.4946C86.7758 24.646 86.9728 24.7217 87.2234 24.7217C87.505 24.7217 87.7638 24.6289 87.9998 24.4434V24.8193C87.7801 24.9788 87.4895 25.0586 87.1282 25.0586C86.775 25.0586 86.4975 24.9455 86.2957 24.7192C86.0939 24.4914 85.993 24.1715 85.993 23.7598C85.993 23.3708 86.1028 23.0542 86.3226 22.8101C86.5439 22.5643 86.8182 22.4414 87.1453 22.4414C87.4725 22.4414 87.7256 22.5472 87.9046 22.7588C88.0836 22.9704 88.1731 23.2642 88.1731 23.6401V23.8501ZM87.763 23.5107C87.7614 23.2796 87.7052 23.0998 87.5945 22.9712C87.4855 22.8426 87.3333 22.7783 87.138 22.7783C86.9492 22.7783 86.7889 22.8459 86.657 22.981C86.5252 23.116 86.4438 23.2926 86.4129 23.5107H87.763ZM90.7653 23.8501H89.0002C89.0067 24.1284 89.0816 24.3433 89.2248 24.4946C89.368 24.646 89.565 24.7217 89.8156 24.7217C90.0972 24.7217 90.356 24.6289 90.592 24.4434V24.8193C90.3723 24.9788 90.0817 25.0586 89.7204 25.0586C89.3672 25.0586 89.0897 24.9455 88.8879 24.7192C88.6861 24.4914 88.5852 24.1715 88.5852 23.7598C88.5852 23.3708 88.695 23.0542 88.9147 22.8101C89.1361 22.5643 89.4104 22.4414 89.7375 22.4414C90.0647 22.4414 90.3177 22.5472 90.4968 22.7588C90.6758 22.9704 90.7653 23.2642 90.7653 23.6401V23.8501ZM90.3552 23.5107C90.3536 23.2796 90.2974 23.0998 90.1867 22.9712C90.0777 22.8426 89.9255 22.7783 89.7302 22.7783C89.5414 22.7783 89.3811 22.8459 89.2492 22.981C89.1174 23.116 89.036 23.2926 89.0051 23.5107H90.3552ZM92.652 22.9053C92.582 22.8516 92.4811 22.8247 92.3492 22.8247C92.1783 22.8247 92.0351 22.9053 91.9195 23.0664C91.8056 23.2275 91.7486 23.4473 91.7486 23.7256V25H91.3482V22.5H91.7486V23.0151H91.7584C91.8154 22.8394 91.9024 22.7026 92.0196 22.605C92.1368 22.5057 92.2678 22.4561 92.4127 22.4561C92.5169 22.4561 92.5966 22.4674 92.652 22.4902V22.9053ZM93.2666 21.8652C93.195 21.8652 93.134 21.8408 93.0835 21.792C93.033 21.7432 93.0078 21.6813 93.0078 21.6064C93.0078 21.5316 93.033 21.4697 93.0835 21.4209C93.134 21.3704 93.195 21.3452 93.2666 21.3452C93.3398 21.3452 93.4017 21.3704 93.4521 21.4209C93.5042 21.4697 93.5303 21.5316 93.5303 21.6064C93.5303 21.6781 93.5042 21.7391 93.4521 21.7896C93.4017 21.84 93.3398 21.8652 93.2666 21.8652ZM93.4619 25H93.0615V22.5H93.4619V25ZM96.3227 25H95.9223V23.5742C95.9223 23.0436 95.7286 22.7783 95.3412 22.7783C95.141 22.7783 94.975 22.854 94.8432 23.0054C94.713 23.1551 94.6479 23.3447 94.6479 23.5742V25H94.2475V22.5H94.6479V22.915H94.6576C94.8464 22.5993 95.1199 22.4414 95.4779 22.4414C95.7514 22.4414 95.9605 22.5301 96.1054 22.7075C96.2502 22.8833 96.3227 23.138 96.3227 23.4717V25ZM99.1883 24.7998C99.1883 25.7178 98.7488 26.1768 97.8699 26.1768C97.5607 26.1768 97.2905 26.1182 97.0594 26.001V25.6006C97.3409 25.7568 97.6095 25.835 97.865 25.835C98.4803 25.835 98.7879 25.5078 98.7879 24.8535V24.5801H98.7781C98.5877 24.8991 98.3012 25.0586 97.9187 25.0586C97.6079 25.0586 97.3572 24.9479 97.1668 24.7266C96.978 24.5036 96.8836 24.2049 96.8836 23.8306C96.8836 23.4058 96.9853 23.068 97.1888 22.8174C97.3938 22.5667 97.6738 22.4414 98.0286 22.4414C98.3655 22.4414 98.6154 22.5765 98.7781 22.8467H98.7879V22.5H99.1883V24.7998ZM98.7879 23.8696V23.501C98.7879 23.3024 98.7203 23.1323 98.5853 22.9907C98.4518 22.8491 98.285 22.7783 98.0848 22.7783C97.8374 22.7783 97.6437 22.8687 97.5037 23.0493C97.3637 23.2284 97.2937 23.4798 97.2937 23.8037C97.2937 24.082 97.3605 24.305 97.4939 24.4727C97.629 24.6387 97.8073 24.7217 98.0286 24.7217C98.2532 24.7217 98.4355 24.6419 98.5755 24.4824C98.7171 24.3229 98.7879 24.1187 98.7879 23.8696ZM104.085 25H103.63L103.259 24.0186H101.775L101.426 25H100.969L102.312 21.499H102.737L104.085 25ZM103.125 23.6499L102.576 22.1582C102.558 22.1094 102.54 22.0312 102.522 21.9238H102.512C102.496 22.0231 102.477 22.1012 102.456 22.1582L101.912 23.6499H103.125ZM104.934 24.6387H104.924V26.1499H104.523V22.5H104.924V22.9395H104.934C105.131 22.6074 105.419 22.4414 105.798 22.4414C106.12 22.4414 106.372 22.5537 106.552 22.7783C106.733 23.0013 106.823 23.3008 106.823 23.6768C106.823 24.0951 106.722 24.4303 106.518 24.6826C106.315 24.9333 106.036 25.0586 105.683 25.0586C105.359 25.0586 105.109 24.9186 104.934 24.6387ZM104.924 23.6304V23.9795C104.924 24.1862 104.991 24.362 105.124 24.5068C105.259 24.6501 105.43 24.7217 105.637 24.7217C105.879 24.7217 106.069 24.6289 106.206 24.4434C106.344 24.2578 106.413 23.9998 106.413 23.6694C106.413 23.3911 106.349 23.173 106.22 23.0151C106.092 22.8573 105.917 22.7783 105.698 22.7783C105.465 22.7783 105.278 22.8597 105.136 23.0225C104.995 23.1836 104.924 23.3862 104.924 23.6304ZM107.848 24.6387H107.838V26.1499H107.438V22.5H107.838V22.9395H107.848C108.045 22.6074 108.333 22.4414 108.712 22.4414C109.035 22.4414 109.286 22.5537 109.467 22.7783C109.647 23.0013 109.738 23.3008 109.738 23.6768C109.738 24.0951 109.636 24.4303 109.433 24.6826C109.229 24.9333 108.951 25.0586 108.598 25.0586C108.274 25.0586 108.024 24.9186 107.848 24.6387ZM107.838 23.6304V23.9795C107.838 24.1862 107.905 24.362 108.038 24.5068C108.174 24.6501 108.344 24.7217 108.551 24.7217C108.794 24.7217 108.983 24.6289 109.12 24.4434C109.258 24.2578 109.328 23.9998 109.328 23.6694C109.328 23.3911 109.263 23.173 109.135 23.0151C109.006 22.8573 108.832 22.7783 108.612 22.7783C108.379 22.7783 108.192 22.8597 108.051 23.0225C107.909 23.1836 107.838 23.3862 107.838 23.6304ZM110.753 25H110.352V21.2988H110.753V25ZM111.743 21.8652C111.672 21.8652 111.611 21.8408 111.56 21.792C111.51 21.7432 111.485 21.6813 111.485 21.6064C111.485 21.5316 111.51 21.4697 111.56 21.4209C111.611 21.3704 111.672 21.3452 111.743 21.3452C111.817 21.3452 111.878 21.3704 111.929 21.4209C111.981 21.4697 112.007 21.5316 112.007 21.6064C112.007 21.6781 111.981 21.7391 111.929 21.7896C111.878 21.84 111.817 21.8652 111.743 21.8652ZM111.939 25H111.538V22.5H111.939V25ZM114.428 24.8853C114.236 25.0008 114.008 25.0586 113.745 25.0586C113.388 25.0586 113.1 24.943 112.88 24.7119C112.662 24.4792 112.553 24.1781 112.553 23.8086C112.553 23.3968 112.671 23.0664 112.907 22.8174C113.143 22.5667 113.458 22.4414 113.852 22.4414C114.072 22.4414 114.266 22.4821 114.433 22.5635V22.9736C114.248 22.8434 114.049 22.7783 113.838 22.7783C113.582 22.7783 113.372 22.8703 113.208 23.0542C113.045 23.2365 112.963 23.4766 112.963 23.7744C112.963 24.0674 113.04 24.2985 113.193 24.4678C113.348 24.637 113.554 24.7217 113.813 24.7217C114.031 24.7217 114.236 24.6493 114.428 24.5044V24.8853ZM116.798 25H116.398V24.6094H116.388C116.214 24.9089 115.958 25.0586 115.619 25.0586C115.37 25.0586 115.175 24.9927 115.033 24.8608C114.893 24.729 114.823 24.554 114.823 24.3359C114.823 23.8688 115.098 23.597 115.648 23.5205L116.398 23.4155C116.398 22.9907 116.226 22.7783 115.883 22.7783C115.582 22.7783 115.31 22.8809 115.067 23.0859V22.6758C115.313 22.5195 115.596 22.4414 115.917 22.4414C116.505 22.4414 116.798 22.7523 116.798 23.374V25ZM116.398 23.7354L115.795 23.8184C115.609 23.8444 115.469 23.8908 115.375 23.9575C115.281 24.0226 115.233 24.139 115.233 24.3066C115.233 24.4287 115.277 24.5288 115.363 24.6069C115.451 24.6834 115.567 24.7217 115.712 24.7217C115.91 24.7217 116.074 24.6525 116.203 24.5142C116.333 24.3742 116.398 24.1976 116.398 23.9844V23.7354ZM118.687 24.9756C118.593 25.0277 118.468 25.0537 118.314 25.0537C117.876 25.0537 117.657 24.8096 117.657 24.3213V22.8418H117.227V22.5H117.657V21.8896L118.058 21.7603V22.5H118.687V22.8418H118.058V24.2505C118.058 24.4181 118.086 24.5378 118.143 24.6094C118.2 24.681 118.294 24.7168 118.426 24.7168C118.527 24.7168 118.614 24.6891 118.687 24.6338V24.9756ZM119.402 21.8652C119.331 21.8652 119.269 21.8408 119.219 21.792C119.169 21.7432 119.143 21.6813 119.143 21.6064C119.143 21.5316 119.169 21.4697 119.219 21.4209C119.269 21.3704 119.331 21.3452 119.402 21.3452C119.475 21.3452 119.537 21.3704 119.588 21.4209C119.64 21.4697 119.666 21.5316 119.666 21.6064C119.666 21.6781 119.64 21.7391 119.588 21.7896C119.537 21.84 119.475 21.8652 119.402 21.8652ZM119.597 25H119.197V22.5H119.597V25ZM121.428 25.0586C121.058 25.0586 120.763 24.9422 120.542 24.7095C120.322 24.4751 120.212 24.165 120.212 23.7793C120.212 23.3594 120.327 23.0314 120.556 22.7954C120.786 22.5594 121.096 22.4414 121.487 22.4414C121.859 22.4414 122.15 22.5562 122.358 22.7856C122.568 23.0151 122.673 23.3333 122.673 23.7402C122.673 24.139 122.56 24.4588 122.334 24.6997C122.109 24.939 121.807 25.0586 121.428 25.0586ZM121.457 22.7783C121.2 22.7783 120.997 22.8662 120.847 23.042C120.697 23.2161 120.622 23.457 120.622 23.7646C120.622 24.0609 120.698 24.2944 120.849 24.4653C121.001 24.6362 121.203 24.7217 121.457 24.7217C121.716 24.7217 121.915 24.6379 122.053 24.4702C122.193 24.3026 122.263 24.0641 122.263 23.7549C122.263 23.4424 122.193 23.2015 122.053 23.0322C121.915 22.863 121.716 22.7783 121.457 22.7783ZM125.363 25H124.963V23.5742C124.963 23.0436 124.769 22.7783 124.381 22.7783C124.181 22.7783 124.015 22.854 123.883 23.0054C123.753 23.1551 123.688 23.3447 123.688 23.5742V25H123.288V22.5H123.688V22.915H123.698C123.887 22.5993 124.16 22.4414 124.518 22.4414C124.792 22.4414 125.001 22.5301 125.146 22.7075C125.29 22.8833 125.363 23.138 125.363 23.4717V25ZM125.943 24.9097V24.48C126.161 24.6411 126.402 24.7217 126.664 24.7217C127.015 24.7217 127.191 24.6045 127.191 24.3701C127.191 24.3034 127.175 24.2472 127.145 24.2017C127.115 24.1545 127.075 24.113 127.022 24.0771C126.972 24.0413 126.912 24.0096 126.842 23.9819C126.773 23.9526 126.699 23.9225 126.62 23.8916C126.509 23.8477 126.411 23.8037 126.327 23.7598C126.244 23.7142 126.174 23.6637 126.117 23.6084C126.061 23.5514 126.019 23.4871 125.99 23.4155C125.962 23.3439 125.948 23.2601 125.948 23.1641C125.948 23.0469 125.975 22.9435 126.029 22.854C126.083 22.7629 126.154 22.6872 126.244 22.627C126.333 22.5651 126.435 22.5187 126.549 22.4878C126.664 22.4569 126.783 22.4414 126.905 22.4414C127.122 22.4414 127.315 22.4788 127.486 22.5537V22.959C127.302 22.8385 127.091 22.7783 126.852 22.7783C126.777 22.7783 126.709 22.7873 126.649 22.8052C126.589 22.8215 126.537 22.8451 126.493 22.876C126.45 22.9069 126.417 22.9443 126.393 22.9883C126.37 23.0306 126.358 23.0778 126.358 23.1299C126.358 23.195 126.37 23.2495 126.393 23.2935C126.417 23.3374 126.452 23.3765 126.498 23.4106C126.543 23.4448 126.598 23.4757 126.664 23.5034C126.729 23.5311 126.803 23.5612 126.886 23.5938C126.996 23.6361 127.096 23.68 127.184 23.7256C127.271 23.7695 127.346 23.82 127.408 23.877C127.47 23.9323 127.517 23.9966 127.55 24.0698C127.584 24.1431 127.601 24.2301 127.601 24.3311C127.601 24.4548 127.573 24.5622 127.518 24.6533C127.464 24.7445 127.392 24.8201 127.301 24.8804C127.21 24.9406 127.105 24.9854 126.986 25.0146C126.867 25.0439 126.743 25.0586 126.612 25.0586C126.355 25.0586 126.132 25.009 125.943 24.9097Z" fill="#525252"/>
<path d="M2.82968 18.9011C3.98352 19.3956 5.24725 19.6154 6.67583 19.6154C9.09341 19.6154 10.9341 19.011 12.1978 17.7473C13.4615 16.511 14.0934 14.6429 14.0934 12.1429V0H2.06044V4.2033H8.70879V12.4725C8.70879 13.4066 8.48901 14.0934 8.07692 14.5605C7.66484 15.055 7.06044 15.2747 6.29121 15.2747C5.08242 15.2747 3.98352 14.6154 2.96703 13.2692L0 16.7857C0.714286 17.7198 1.67583 18.4066 2.82968 18.9011Z" fill="#385FB3"/>
<path d="M20.054 19.2308H25.3836V15.989L20.054 9.2033V19.2308ZM33.021 0V3.48901L38.3507 9.91759V0H33.021Z" fill="#385FB3"/>
<path d="M32.967 10.2473L24.478 0H20V2.55495L33.8187 19.2308H38.2967V17.0055L32.967 10.2198V10.2473Z" fill="#F6DD80"/>
<path d="M57.3888 9.58792V14.8626C56.4547 15.3022 55.4932 15.4945 54.4492 15.4945C53.3778 15.4945 52.4437 15.2747 51.6195 14.8077C50.7954 14.3407 50.136 13.6813 49.6965 12.8572C49.2294 12.033 49.0096 11.0714 49.0096 10C49.0096 8.35165 49.5042 7.0055 50.5206 6.01649C51.5096 5.02748 52.8558 4.5055 54.5042 4.5055C56.3173 4.5055 57.8558 5.21978 59.1745 6.64836L62.636 3.51649C61.6745 2.39011 60.4932 1.51099 59.0646 0.906594C57.636 0.302198 56.0151 0 54.2294 0C52.169 0 50.3283 0.439562 48.7074 1.29121C47.0591 2.14286 45.7954 3.32418 44.8888 4.83517C43.9547 6.37363 43.5151 8.07693 43.5151 10C43.5151 11.9231 43.9547 13.6539 44.8888 15.1648C45.7954 16.7033 47.0591 17.8846 48.68 18.7363C50.2734 19.5879 52.0866 20 54.1195 20C55.5481 20 56.9767 19.8077 58.4053 19.3681C59.8338 18.9561 61.0975 18.3517 62.1965 17.555V9.58792H57.3888Z" fill="#385FB3"/>
<path d="M70.1593 19.4231C71.6154 19.8077 73.1263 20 74.6923 20C76.5055 20 78.0714 19.7253 79.3626 19.1758C80.6263 18.6264 81.5879 17.8572 82.2472 16.9231C82.8791 15.989 83.2088 14.9451 83.2088 13.7912C83.2088 12.4725 82.8516 11.4011 82.1373 10.6319C81.423 9.86264 80.5989 9.28572 79.6373 8.92858C78.6758 8.57144 77.467 8.24176 76.011 7.91209C74.6923 7.63737 73.7582 7.39012 73.1813 7.11539C72.5769 6.86814 72.3022 6.48352 72.3022 5.96154C72.3022 5.46704 72.5494 5.05495 73.0439 4.72528C73.5384 4.39561 74.3077 4.23077 75.4066 4.23077C77.1099 4.23077 78.8956 4.72528 80.7362 5.71429L82.4121 1.67583C81.478 1.12638 80.3791 0.714286 79.1703 0.439561C77.934 0.164835 76.6978 0 75.434 0C73.5659 0 72 0.274725 70.7362 0.824176C69.4725 1.37363 68.511 2.14286 67.8791 3.07692C67.2197 4.01099 66.9175 5.08242 66.9175 6.23627C66.9175 7.58242 67.2472 8.65385 67.9615 9.42308C68.6483 10.2198 69.4725 10.7967 70.4615 11.1539C71.423 11.511 72.6318 11.8407 74.0879 12.1429C75.4066 12.4451 76.3406 12.7198 76.945 12.9945C77.5494 13.2692 77.8516 13.6539 77.8516 14.2033C77.8516 15.2473 76.8077 15.7692 74.7197 15.7692C73.6208 15.7692 72.4945 15.6044 71.3681 15.2473C70.2142 14.9176 69.2253 14.4506 68.3736 13.8736L66.5879 17.8846C67.4945 18.544 68.6758 19.0385 70.1593 19.4231Z" fill="#385FB3"/>
<path d="M103.232 0H87.9844V4.2033H103.232V0ZM103.232 7.44506H87.9844V11.511H103.232V7.44506ZM87.9844 15.0275V19.2308H103.232V15.0275H87.9844Z" fill="#F6DD80"/>
<path d="M120.243 0H114.885L106.396 19.2308H111.946L113.457 15.4945L115.05 11.4835L117.523 5.32968L119.995 11.4835L121.589 15.4945L123.1 19.2308H128.759L120.243 0Z" fill="#385FB3"/>
</svg>
