<svg width="434" height="284" viewBox="0 0 434 284" fill="none" xmlns="http://www.w3.org/2000/svg">
<path d="M147.196 269.959H148.341V276.219C148.341 276.865 148.189 277.442 147.884 277.95C147.583 278.454 147.156 278.853 146.606 279.145C146.055 279.435 145.408 279.579 144.667 279.579C143.925 279.579 143.279 279.435 142.728 279.145C142.177 278.853 141.749 278.454 141.444 277.95C141.143 277.442 140.992 276.865 140.992 276.219V269.959H142.137V276.126C142.137 276.588 142.238 276.999 142.441 277.359C142.645 277.716 142.934 277.997 143.309 278.204C143.688 278.407 144.14 278.508 144.667 278.508C145.193 278.508 145.645 278.407 146.024 278.204C146.402 277.997 146.692 277.716 146.892 277.359C147.095 276.999 147.196 276.588 147.196 276.126V269.959ZM158.125 269.959V279.413H157.017L151.865 271.99H151.772V279.413H150.628V269.959H151.736L156.906 277.4H156.998V269.959H158.125ZM163.333 279.413H160.416V269.959H163.463C164.38 269.959 165.165 270.148 165.817 270.526C166.469 270.902 166.97 271.442 167.317 272.147C167.665 272.848 167.839 273.689 167.839 274.667C167.839 275.652 167.664 276.5 167.313 277.211C166.962 277.919 166.451 278.464 165.78 278.845C165.109 279.224 164.294 279.413 163.333 279.413ZM161.561 278.397H163.259C164.041 278.397 164.689 278.247 165.203 277.945C165.717 277.643 166.1 277.214 166.352 276.657C166.605 276.1 166.731 275.437 166.731 274.667C166.731 273.904 166.606 273.247 166.357 272.696C166.108 272.142 165.735 271.717 165.24 271.422C164.744 271.123 164.127 270.974 163.389 270.974H161.561V278.397ZM169.759 279.413V269.959H175.465V270.974H170.904V274.169H175.17V275.184H170.904V278.397H175.539V279.413H169.759ZM177.529 279.413V269.959H180.724C181.462 269.959 182.069 270.085 182.542 270.337C183.016 270.586 183.367 270.93 183.595 271.367C183.823 271.804 183.937 272.301 183.937 272.858C183.937 273.415 183.823 273.909 183.595 274.34C183.367 274.77 183.018 275.109 182.547 275.355C182.076 275.598 181.475 275.72 180.742 275.72H178.157V274.686H180.705C181.21 274.686 181.616 274.612 181.924 274.464C182.235 274.317 182.459 274.107 182.598 273.836C182.739 273.563 182.81 273.236 182.81 272.858C182.81 272.479 182.739 272.148 182.598 271.865C182.456 271.582 182.23 271.364 181.919 271.21C181.608 271.053 181.198 270.974 180.687 270.974H178.674V279.413H177.529ZM181.979 275.166L184.306 279.413H182.976L180.687 275.166H181.979ZM197.109 272.913H195.964C195.896 272.584 195.778 272.295 195.608 272.045C195.442 271.796 195.239 271.587 194.999 271.417C194.762 271.245 194.499 271.116 194.209 271.03C193.92 270.943 193.619 270.9 193.305 270.9C192.732 270.9 192.214 271.045 191.749 271.334C191.287 271.624 190.919 272.05 190.646 272.613C190.375 273.176 190.239 273.867 190.239 274.686C190.239 275.504 190.375 276.195 190.646 276.759C190.919 277.322 191.287 277.748 191.749 278.037C192.214 278.327 192.732 278.471 193.305 278.471C193.619 278.471 193.92 278.428 194.209 278.342C194.499 278.256 194.762 278.128 194.999 277.959C195.239 277.787 195.442 277.576 195.608 277.326C195.778 277.074 195.896 276.785 195.964 276.459H197.109C197.022 276.942 196.865 277.374 196.638 277.756C196.41 278.137 196.127 278.462 195.788 278.73C195.45 278.995 195.07 279.196 194.648 279.335C194.229 279.473 193.782 279.542 193.305 279.542C192.498 279.542 191.781 279.345 191.153 278.951C190.526 278.558 190.032 277.997 189.671 277.271C189.311 276.545 189.131 275.683 189.131 274.686C189.131 273.689 189.311 272.827 189.671 272.101C190.032 271.374 190.526 270.814 191.153 270.42C191.781 270.026 192.498 269.829 193.305 269.829C193.782 269.829 194.229 269.899 194.648 270.037C195.07 270.176 195.45 270.379 195.788 270.646C196.127 270.911 196.41 271.234 196.638 271.616C196.865 271.994 197.022 272.427 197.109 272.913ZM206.936 274.686C206.936 275.683 206.756 276.545 206.396 277.271C206.036 277.997 205.542 278.558 204.914 278.951C204.286 279.345 203.569 279.542 202.763 279.542C201.956 279.542 201.239 279.345 200.611 278.951C199.984 278.558 199.49 277.997 199.129 277.271C198.769 276.545 198.589 275.683 198.589 274.686C198.589 273.689 198.769 272.827 199.129 272.101C199.49 271.374 199.984 270.814 200.611 270.42C201.239 270.026 201.956 269.829 202.763 269.829C203.569 269.829 204.286 270.026 204.914 270.42C205.542 270.814 206.036 271.374 206.396 272.101C206.756 272.827 206.936 273.689 206.936 274.686ZM205.828 274.686C205.828 273.867 205.691 273.176 205.417 272.613C205.146 272.05 204.779 271.624 204.314 271.334C203.852 271.045 203.335 270.9 202.763 270.9C202.19 270.9 201.672 271.045 201.207 271.334C200.745 271.624 200.377 272.05 200.104 272.613C199.833 273.176 199.697 273.867 199.697 274.686C199.697 275.504 199.833 276.195 200.104 276.759C200.377 277.322 200.745 277.748 201.207 278.037C201.672 278.327 202.19 278.471 202.763 278.471C203.335 278.471 203.852 278.327 204.314 278.037C204.779 277.748 205.146 277.322 205.417 276.759C205.691 276.195 205.828 275.504 205.828 274.686ZM216.358 269.959V279.413H215.25L210.098 271.99H210.006V279.413H208.861V269.959H209.969L215.139 277.4H215.232V269.959H216.358ZM223.82 272.322C223.764 271.854 223.539 271.491 223.146 271.233C222.752 270.974 222.268 270.845 221.696 270.845C221.277 270.845 220.911 270.913 220.597 271.048C220.286 271.183 220.043 271.37 219.868 271.607C219.695 271.844 219.609 272.113 219.609 272.415C219.609 272.667 219.669 272.884 219.789 273.065C219.912 273.244 220.069 273.393 220.26 273.513C220.451 273.63 220.651 273.727 220.86 273.804C221.07 273.878 221.262 273.938 221.437 273.984L222.398 274.243C222.644 274.307 222.918 274.397 223.219 274.51C223.524 274.624 223.815 274.78 224.092 274.977C224.372 275.171 224.603 275.42 224.784 275.725C224.966 276.029 225.057 276.403 225.057 276.846C225.057 277.357 224.923 277.819 224.655 278.231C224.39 278.644 224.003 278.971 223.492 279.215C222.984 279.458 222.367 279.579 221.641 279.579C220.963 279.579 220.377 279.47 219.882 279.252C219.389 279.033 219.001 278.728 218.718 278.337C218.438 277.947 218.28 277.493 218.243 276.976H219.425C219.455 277.333 219.575 277.628 219.785 277.862C219.997 278.093 220.265 278.265 220.588 278.379C220.914 278.49 221.265 278.545 221.641 278.545C222.078 278.545 222.47 278.474 222.818 278.333C223.166 278.188 223.441 277.988 223.644 277.733C223.847 277.474 223.949 277.173 223.949 276.828C223.949 276.514 223.861 276.259 223.686 276.062C223.51 275.865 223.279 275.705 222.993 275.581C222.707 275.458 222.398 275.351 222.065 275.258L220.902 274.926C220.163 274.714 219.579 274.41 219.148 274.016C218.717 273.623 218.501 273.107 218.501 272.47C218.501 271.941 218.644 271.479 218.931 271.085C219.22 270.688 219.608 270.38 220.094 270.162C220.583 269.94 221.13 269.829 221.733 269.829C222.342 269.829 222.884 269.939 223.358 270.157C223.832 270.373 224.207 270.668 224.484 271.043C224.764 271.419 224.912 271.845 224.928 272.322H223.82ZM226.422 270.974V269.959H233.513V270.974H230.54V279.413H229.395V270.974H226.422ZM235.28 279.413V269.959H238.475C239.213 269.959 239.819 270.085 240.293 270.337C240.767 270.586 241.118 270.93 241.346 271.367C241.574 271.804 241.688 272.301 241.688 272.858C241.688 273.415 241.574 273.909 241.346 274.34C241.118 274.77 240.769 275.109 240.298 275.355C239.827 275.598 239.226 275.72 238.493 275.72H235.908V274.686H238.456C238.961 274.686 239.367 274.612 239.675 274.464C239.986 274.317 240.21 274.107 240.349 273.836C240.49 273.563 240.561 273.236 240.561 272.858C240.561 272.479 240.49 272.148 240.349 271.865C240.207 271.582 239.981 271.364 239.67 271.21C239.359 271.053 238.949 270.974 238.438 270.974H236.425V279.413H235.28ZM239.73 275.166L242.057 279.413H240.727L238.438 275.166H239.73ZM249.8 269.959H250.945V276.219C250.945 276.865 250.792 277.442 250.488 277.95C250.186 278.454 249.76 278.853 249.209 279.145C248.658 279.435 248.012 279.579 247.27 279.579C246.528 279.579 245.882 279.435 245.331 279.145C244.78 278.853 244.352 278.454 244.048 277.95C243.746 277.442 243.595 276.865 243.595 276.219V269.959H244.74V276.126C244.74 276.588 244.842 276.999 245.045 277.359C245.248 277.716 245.537 277.997 245.913 278.204C246.291 278.407 246.744 278.508 247.27 278.508C247.796 278.508 248.249 278.407 248.627 278.204C249.006 277.997 249.295 277.716 249.495 277.359C249.698 276.999 249.8 276.588 249.8 276.126V269.959ZM260.839 272.913H259.694C259.626 272.584 259.508 272.295 259.339 272.045C259.173 271.796 258.969 271.587 258.729 271.417C258.492 271.245 258.229 271.116 257.94 271.03C257.651 270.943 257.349 270.9 257.035 270.9C256.463 270.9 255.944 271.045 255.479 271.334C255.018 271.624 254.65 272.05 254.376 272.613C254.105 273.176 253.97 273.867 253.97 274.686C253.97 275.504 254.105 276.195 254.376 276.759C254.65 277.322 255.018 277.748 255.479 278.037C255.944 278.327 256.463 278.471 257.035 278.471C257.349 278.471 257.651 278.428 257.94 278.342C258.229 278.256 258.492 278.128 258.729 277.959C258.969 277.787 259.173 277.576 259.339 277.326C259.508 277.074 259.626 276.785 259.694 276.459H260.839C260.753 276.942 260.596 277.374 260.368 277.756C260.14 278.137 259.857 278.462 259.519 278.73C259.18 278.995 258.8 279.196 258.379 279.335C257.96 279.473 257.512 279.542 257.035 279.542C256.229 279.542 255.512 279.345 254.884 278.951C254.256 278.558 253.762 277.997 253.402 277.271C253.042 276.545 252.862 275.683 252.862 274.686C252.862 273.689 253.042 272.827 253.402 272.101C253.762 271.374 254.256 270.814 254.884 270.42C255.512 270.026 256.229 269.829 257.035 269.829C257.512 269.829 257.96 269.899 258.379 270.037C258.8 270.176 259.18 270.379 259.519 270.646C259.857 270.911 260.14 271.234 260.368 271.616C260.596 271.994 260.753 272.427 260.839 272.913ZM262.172 270.974V269.959H269.263V270.974H266.29V279.413H265.145V270.974H262.172ZM272.175 269.959V279.413H271.03V269.959H272.175ZM282.448 274.686C282.448 275.683 282.268 276.545 281.908 277.271C281.547 277.997 281.053 278.558 280.426 278.951C279.798 279.345 279.081 279.542 278.274 279.542C277.468 279.542 276.751 279.345 276.123 278.951C275.495 278.558 275.001 277.997 274.641 277.271C274.281 276.545 274.101 275.683 274.101 274.686C274.101 273.689 274.281 272.827 274.641 272.101C275.001 271.374 275.495 270.814 276.123 270.42C276.751 270.026 277.468 269.829 278.274 269.829C279.081 269.829 279.798 270.026 280.426 270.42C281.053 270.814 281.547 271.374 281.908 272.101C282.268 272.827 282.448 273.689 282.448 274.686ZM281.34 274.686C281.34 273.867 281.203 273.176 280.929 272.613C280.658 272.05 280.29 271.624 279.826 271.334C279.364 271.045 278.847 270.9 278.274 270.9C277.702 270.9 277.183 271.045 276.719 271.334C276.257 271.624 275.889 272.05 275.615 272.613C275.344 273.176 275.209 273.867 275.209 274.686C275.209 275.504 275.344 276.195 275.615 276.759C275.889 277.322 276.257 277.748 276.719 278.037C277.183 278.327 277.702 278.471 278.274 278.471C278.847 278.471 279.364 278.327 279.826 278.037C280.29 277.748 280.658 277.322 280.929 276.759C281.203 276.195 281.34 275.504 281.34 274.686ZM291.87 269.959V279.413H290.762L285.61 271.99H285.518V279.413H284.373V269.959H285.481L290.651 277.4H290.743V269.959H291.87Z" fill="#516092"/>
<path d="M331.985 280.854H309.205C308.455 280.854 307.847 281.462 307.847 282.212C307.847 282.962 308.455 283.57 309.205 283.57H331.985C332.735 283.57 333.344 282.962 333.344 282.212C333.344 281.462 332.735 280.854 331.985 280.854Z" fill="#ED7445"/>
<path d="M322.444 261.488C322.337 261.195 322.059 261 321.747 261H319.136C318.821 261 318.54 261.199 318.436 261.497L311.085 282.527H330.103L322.444 261.488Z" fill="#ED7445"/>
<path d="M317.076 265.389L315.915 268.711H325.074L323.864 265.389H317.076Z" fill="#ECEFF1"/>
<path d="M314.117 273.853L312.956 277.175H328.156L326.946 273.853H314.117Z" fill="#ECEFF1"/>
<path d="M124.138 280.854H101.358C100.608 280.854 100 281.462 100 282.212C100 282.962 100.608 283.57 101.358 283.57H124.138C124.888 283.57 125.496 282.962 125.496 282.212C125.496 281.462 124.889 280.854 124.138 280.854Z" fill="#ED7445"/>
<path d="M114.597 261.488C114.49 261.195 114.212 261 113.9 261H111.289C110.974 261 110.693 261.199 110.589 261.497L103.238 282.527H122.256L114.597 261.488Z" fill="#ED7445"/>
<path d="M109.229 265.389L108.068 268.711H117.227L116.018 265.389H109.229Z" fill="#ECEFF1"/>
<path d="M106.271 273.853L105.11 277.175H120.309L119.099 273.853H106.271Z" fill="#ECEFF1"/>
<path opacity="0.5" d="M125.503 129.93H70.905V224.664H125.503H140.429H204.616V59.469H125.503V129.93Z" fill="#D4E0FF"/>
<path opacity="0.5" d="M294.616 135.668V0H215.503V224.664H291.501H294.616H352.698V135.668H294.616Z" fill="#D4E0FF"/>
<path d="M434.001 221.664H0V223.664H434.001V221.664Z" fill="#516092"/>
<path d="M285.814 82.664H95.091V232.555H285.814V82.664Z" fill="#BCCCFD"/>
<path d="M285.814 99.643H95.091V232.555H285.814V99.643Z" fill="white"/>
<path d="M101.924 93.611C103.461 93.611 104.707 92.365 104.707 90.828C104.707 89.291 103.461 88.045 101.924 88.045C100.387 88.045 99.141 89.291 99.141 90.828C99.141 92.365 100.387 93.611 101.924 93.611Z" fill="white"/>
<path d="M116.539 90.828C116.539 92.365 115.293 93.611 113.756 93.611C112.219 93.611 110.973 92.365 110.973 90.828C110.973 89.291 112.219 88.045 113.756 88.045C115.293 88.045 116.539 89.291 116.539 90.828Z" fill="white"/>
<path d="M128.371 90.828C128.371 92.365 127.125 93.611 125.588 93.611C124.051 93.611 122.805 92.365 122.805 90.828C122.805 89.291 124.051 88.045 125.588 88.045C127.125 88.045 128.371 89.291 128.371 90.828Z" fill="white"/>
<path d="M220.198 95.833H141.701C139.077 95.833 136.95 93.706 136.95 91.082C136.95 88.458 139.077 86.331 141.701 86.331H220.198C222.822 86.331 224.949 88.458 224.949 91.082C224.95 93.706 222.823 95.833 220.198 95.833Z" fill="white"/>
<path d="M274.195 95.833H237.031C234.407 95.833 232.28 93.706 232.28 91.082C232.28 88.458 234.407 86.331 237.031 86.331H274.195C276.819 86.331 278.946 88.458 278.946 91.082C278.946 93.706 276.819 95.833 274.195 95.833Z" fill="white"/>
<path d="M178.16 158.862H110.315V197.157H178.16V158.862Z" fill="#BCCCFD"/>
<path d="M178.16 111.862H110.315V150.157H178.16V111.862Z" fill="#BCCCFD"/>
<path d="M177.571 206.831H110.905V209.831H177.571V206.831Z" fill="#BCCCFD"/>
<path d="M177.571 216.831H110.905V219.831H177.571V216.831Z" fill="#BCCCFD"/>
<path d="M268.283 206.831H201.617V209.831H268.283V206.831Z" fill="#BCCCFD"/>
<path d="M268.283 216.831H201.617V219.831H268.283V216.831Z" fill="#BCCCFD"/>
<path d="M286.814 233.556H94.091V81.664H286.814V233.556ZM96.091 231.556H284.814V83.664H96.091V231.556Z" fill="#516092"/>
<path d="M332.508 210.998H312.942V46.332H332.508V210.998ZM314.942 208.998H330.508V48.332H314.942V208.998Z" fill="#516092"/>
<path d="M335.187 201.472H310.264V219.331H335.187V201.472Z" fill="#BCCCFD"/>
<path d="M331.615 191.997H314.282C313.885 191.997 313.525 191.762 313.365 191.397C313.206 191.033 313.278 190.609 313.548 190.317L330.214 172.318L331.682 173.676L316.57 189.996H331.614V191.997H331.615Z" fill="#516092"/>
<path d="M331.615 173.963H314.282C313.885 173.963 313.525 173.728 313.365 173.363C313.206 172.999 313.278 172.575 313.548 172.283L330.214 154.283L331.682 155.641L316.57 171.962H331.614V173.963H331.615Z" fill="#516092"/>
<path d="M331.615 155.929H314.282C313.885 155.929 313.525 155.694 313.365 155.329C313.206 154.965 313.278 154.541 313.548 154.249L330.214 136.249L331.682 137.607L316.57 153.928H331.614V155.929H331.615Z" fill="#516092"/>
<path d="M331.615 137.895H314.282C313.885 137.895 313.525 137.66 313.365 137.295C313.206 136.931 313.278 136.507 313.548 136.215L330.214 118.215L331.682 119.573L316.57 135.894H331.614V137.895H331.615Z" fill="#516092"/>
<path d="M331.615 119.861H314.282C313.885 119.861 313.525 119.626 313.365 119.261C313.206 118.897 313.278 118.473 313.548 118.181L330.214 100.181L331.682 101.539L316.57 117.86H331.614V119.861H331.615Z" fill="#516092"/>
<path d="M331.615 101.827H314.282C313.885 101.827 313.525 101.592 313.365 101.227C313.206 100.863 313.278 100.439 313.548 100.147L330.214 82.147L331.682 83.505L316.57 99.826H331.614V101.827H331.615Z" fill="#516092"/>
<path d="M331.615 83.793H314.282C313.885 83.793 313.525 83.558 313.365 83.193C313.206 82.829 313.278 82.405 313.548 82.113L330.214 64.113L331.682 65.471L316.57 81.792H331.614V83.793H331.615Z" fill="#516092"/>
<path d="M331.615 65.759H314.282C313.885 65.759 313.525 65.524 313.365 65.159C313.205 64.794 313.278 64.371 313.548 64.079L330.214 46.079L331.682 47.437L316.57 63.758H331.614V65.759H331.615Z" fill="#516092"/>
<path d="M332.475 39.378H300.756V66.118H332.475V39.378Z" fill="#ED7445"/>
<path d="M380.141 39.378H348.422V54.737H380.141V39.378Z" fill="#ED7445"/>
<path d="M379.615 41.331H222.948C222.396 41.331 221.948 40.883 221.948 40.331C221.948 39.779 222.396 39.331 222.948 39.331H379.615C380.167 39.331 380.615 39.779 380.615 40.331C380.615 40.883 380.167 41.331 379.615 41.331Z" fill="#516092"/>
<path d="M231.226 44.998H230.226V109.998H231.226V44.998Z" fill="#516092"/>
<path d="M343.687 216.139H301.763V223.998H343.687V216.139Z" fill="#516092"/>
<path d="M316.732 41.069C316.604 41.069 316.476 41.02 316.379 40.923L308.025 32.569H231.439L223.585 40.423C223.39 40.618 223.073 40.618 222.878 40.423C222.683 40.228 222.683 39.911 222.878 39.716L231.024 31.57H308.438L317.084 40.216C317.279 40.411 317.279 40.728 317.084 40.923C316.988 41.02 316.86 41.069 316.732 41.069Z" fill="#516092"/>
<path d="M380.282 41.069C380.102 41.069 379.928 40.971 379.839 40.801L371.479 24.831H351.205L343.344 40.296C343.219 40.542 342.917 40.638 342.672 40.515C342.426 40.39 342.328 40.089 342.453 39.843L350.592 23.831H372.085L380.725 40.337C380.853 40.582 380.759 40.884 380.514 41.012C380.439 41.051 380.36 41.069 380.282 41.069Z" fill="#516092"/>
<path d="M234.393 44.997C234.393 47.022 232.751 48.664 230.726 48.664C228.701 48.664 227.059 47.022 227.059 44.997C227.059 42.972 228.701 41.33 230.726 41.33C232.751 41.331 234.393 42.972 234.393 44.997Z" fill="#BCCCFD"/>
<path d="M269.85 108.696L186.116 116.432L190.102 159.583L273.836 151.847L269.85 108.696Z" fill="#BCCCFD"/>
<path d="M252.405 32.562C252.191 32.562 251.992 32.423 251.927 32.208C251.846 31.944 251.995 31.664 252.259 31.584L326.292 9.00998C326.405 8.97598 326.525 8.98199 326.632 9.02799L361.721 23.837C361.975 23.944 362.095 24.237 361.987 24.492C361.88 24.747 361.586 24.866 361.332 24.758L326.411 10.019L252.551 32.54C252.502 32.555 252.454 32.562 252.405 32.562Z" fill="#516092"/>
<path d="M314.791 41.136C314.673 41.136 314.553 41.115 314.436 41.07C313.92 40.874 313.661 40.297 313.857 39.78L325.514 9.106C325.672 8.691 326.082 8.42801 326.531 8.46501C326.975 8.50201 327.342 8.82701 327.429 9.26401L333.455 39.18C333.564 39.721 333.213 40.248 332.672 40.358C332.132 40.463 331.604 40.116 331.494 39.575L326.152 13.055L315.725 40.491C315.574 40.89 315.194 41.136 314.791 41.136Z" fill="#516092"/>
<path d="M328.463 9.461C328.463 10.574 327.561 11.476 326.448 11.476C325.335 11.476 324.433 10.574 324.433 9.461C324.433 8.348 325.335 7.446 326.448 7.446C327.561 7.446 328.463 8.348 328.463 9.461Z" fill="#BCCCFD"/>
<path d="M241.864 41.164C241.754 41.164 241.643 41.128 241.55 41.053L231.731 33.116V40.537C231.731 40.813 231.507 41.037 231.231 41.037C230.955 41.037 230.731 40.813 230.731 40.537V32.069C230.731 31.876 230.842 31.701 231.016 31.618C231.189 31.535 231.396 31.558 231.546 31.681L242.18 40.276C242.395 40.449 242.428 40.764 242.254 40.979C242.155 41.101 242.01 41.164 241.864 41.164Z" fill="#516092"/>
<path d="M251.36 41.164C251.25 41.164 251.139 41.128 251.046 41.053L241.226 33.116V40.537C241.226 40.813 241.002 41.037 240.726 41.037C240.45 41.037 240.226 40.813 240.226 40.537V32.069C240.226 31.876 240.337 31.701 240.511 31.618C240.683 31.535 240.89 31.558 241.041 31.681L251.675 40.276C251.89 40.449 251.923 40.764 251.749 40.979C251.65 41.101 251.506 41.164 251.36 41.164Z" fill="#516092"/>
<path d="M260.855 41.164C260.745 41.164 260.634 41.128 260.541 41.053L250.721 33.116V40.537C250.721 40.813 250.497 41.037 250.221 41.037C249.945 41.037 249.721 40.813 249.721 40.537V32.069C249.721 31.876 249.832 31.701 250.006 31.618C250.178 31.535 250.385 31.558 250.536 31.681L261.17 40.276C261.385 40.449 261.418 40.764 261.244 40.979C261.146 41.101 261.001 41.164 260.855 41.164Z" fill="#516092"/>
<path d="M270.351 41.164C270.241 41.164 270.13 41.128 270.037 41.053L260.218 33.116V40.537C260.218 40.813 259.994 41.037 259.718 41.037C259.442 41.037 259.218 40.813 259.218 40.537V32.069C259.218 31.876 259.329 31.701 259.503 31.618C259.676 31.535 259.882 31.558 260.033 31.681L270.667 40.276C270.882 40.449 270.915 40.764 270.741 40.979C270.641 41.101 270.497 41.164 270.351 41.164Z" fill="#516092"/>
<path d="M279.846 41.164C279.736 41.164 279.625 41.128 279.532 41.053L269.712 33.116V40.537C269.712 40.813 269.488 41.037 269.212 41.037C268.936 41.037 268.712 40.813 268.712 40.537V32.069C268.712 31.876 268.823 31.701 268.997 31.618C269.17 31.535 269.376 31.558 269.527 31.681L280.161 40.276C280.376 40.449 280.409 40.764 280.235 40.979C280.137 41.101 279.992 41.164 279.846 41.164Z" fill="#516092"/>
<path d="M289.342 41.164C289.232 41.164 289.121 41.128 289.028 41.053L279.208 33.116V40.537C279.208 40.813 278.984 41.037 278.708 41.037C278.432 41.037 278.208 40.813 278.208 40.537V32.069C278.208 31.876 278.319 31.701 278.493 31.618C278.665 31.535 278.872 31.558 279.023 31.681L289.657 40.276C289.872 40.449 289.905 40.764 289.731 40.979C289.632 41.101 289.488 41.164 289.342 41.164Z" fill="#516092"/>
<path d="M298.837 41.164C298.727 41.164 298.616 41.128 298.523 41.053L288.703 33.116V40.537C288.703 40.813 288.479 41.037 288.203 41.037C287.927 41.037 287.703 40.813 287.703 40.537V32.069C287.703 31.876 287.814 31.701 287.988 31.618C288.16 31.535 288.367 31.558 288.518 31.681L299.152 40.276C299.367 40.449 299.4 40.764 299.226 40.979C299.127 41.101 298.983 41.164 298.837 41.164Z" fill="#516092"/>
<path d="M308.333 41.164C308.223 41.164 308.112 41.128 308.019 41.053L298.199 33.116V40.537C298.199 40.813 297.975 41.037 297.699 41.037C297.423 41.037 297.199 40.813 297.199 40.537V32.069C297.199 31.876 297.31 31.701 297.484 31.618C297.657 31.535 297.864 31.558 298.014 31.681L308.648 40.276C308.863 40.449 308.896 40.764 308.722 40.979C308.623 41.101 308.479 41.164 308.333 41.164Z" fill="#516092"/>
<path d="M364.467 41.164C364.325 41.164 364.184 41.104 364.085 40.987L351.332 25.936V40.537C351.332 40.813 351.108 41.037 350.832 41.037C350.556 41.037 350.332 40.813 350.332 40.537V24.573C350.332 24.363 350.463 24.176 350.66 24.104C350.858 24.031 351.078 24.089 351.214 24.25L364.849 40.341C365.028 40.551 365.001 40.867 364.791 41.045C364.696 41.125 364.581 41.164 364.467 41.164Z" fill="#516092"/>
<path d="M374.276 41.164C374.114 41.164 373.955 41.085 373.858 40.94L364.141 26.236V40.537C364.141 40.813 363.917 41.037 363.641 41.037C363.365 41.037 363.141 40.813 363.141 40.537V24.573C363.141 24.352 363.286 24.158 363.497 24.094C363.711 24.032 363.937 24.114 364.058 24.297L374.692 40.388C374.844 40.618 374.781 40.929 374.551 41.081C374.466 41.137 374.371 41.164 374.276 41.164Z" fill="#516092"/>
<path d="M233.875 111.331C233.875 113.07 232.465 114.479 230.727 114.479C228.988 114.479 227.579 113.069 227.579 111.331C227.579 109.592 228.989 108.183 230.727 108.183C232.465 108.182 233.875 109.592 233.875 111.331Z" fill="#ED7445"/>
<path d="M62.116 174.165H60.116V222.164H62.116V174.165Z" fill="#516092"/>
<path d="M24.116 174.165H22.116V222.164H24.116V174.165Z" fill="#516092"/>
<path d="M67.335 178.664H17.116V197.164H67.335V178.664Z" fill="#E3EBFF"/>
<path d="M67.3351 197.164V179.664L58.1021 197.164H67.3351Z" fill="#ED7445"/>
<path d="M35.601 197.164H46.342L56.104 178.664H45.362L35.601 197.164Z" fill="#ED7445"/>
<path d="M22.862 178.664L17.116 189.554V197.164H23.842L33.603 178.664H22.862Z" fill="#ED7445"/>
<path d="M69.616 208.165H14.616V210.165H69.616V208.165Z" fill="#516092"/>
<path d="M410.115 174.165H408.115V222.164H410.115V174.165Z" fill="#516092"/>
<path d="M372.115 174.165H370.115V222.164H372.115V174.165Z" fill="#516092"/>
<path d="M415.334 178.664H365.115V197.164H415.334V178.664Z" fill="#E3EBFF"/>
<path d="M415.334 197.164V179.664L406.1 197.164H415.334Z" fill="#ED7445"/>
<path d="M383.6 197.164H394.341L404.102 178.664H393.361L383.6 197.164Z" fill="#ED7445"/>
<path d="M370.861 178.664L365.115 189.554V197.164H371.841L381.602 178.664H370.861Z" fill="#ED7445"/>
<path d="M417.615 208.165H362.615V210.165H417.615V208.165Z" fill="#516092"/>
<path d="M91.497 235.992H68.716C67.966 235.992 67.358 236.6 67.358 237.351C67.358 238.102 67.966 238.709 68.716 238.709H91.497C92.247 238.709 92.855 238.101 92.855 237.351C92.855 236.601 92.247 235.992 91.497 235.992Z" fill="#ED7445"/>
<path d="M81.956 216.625C81.849 216.332 81.571 216.137 81.259 216.137H78.648C78.333 216.137 78.052 216.336 77.948 216.634L70.597 237.664H89.615L81.956 216.625Z" fill="#ED7445"/>
<path d="M76.588 220.527L75.427 223.848H84.586L83.376 220.527H76.588Z" fill="#ECEFF1"/>
<path d="M73.629 228.991L72.468 232.313H87.668L86.458 228.991H73.629Z" fill="#ECEFF1"/>
<path opacity="0.5" d="M88.093 58.944C86.425 58.944 84.883 59.474 83.616 60.368V58.163C83.616 51.812 78.467 46.663 72.116 46.663C65.765 46.663 60.616 51.812 60.616 58.163V62.509C59.575 61.521 58.171 60.911 56.622 60.911C53.414 60.911 50.812 63.512 50.812 66.721H95.869C95.87 62.426 92.388 58.944 88.093 58.944Z" fill="#D4E0FF"/>
<path opacity="0.5" d="M180.954 27.605C179.739 27.605 178.617 27.991 177.695 28.642V27.036C177.695 22.412 173.947 18.664 169.323 18.664C164.699 18.664 160.951 22.413 160.951 27.036V30.2C160.193 29.481 159.171 29.037 158.043 29.037C155.707 29.037 153.813 30.931 153.813 33.267H186.616C186.616 30.14 184.081 27.605 180.954 27.605Z" fill="#D4E0FF"/>
</svg>
